<svg width="11" height="10" viewBox="0 0 11 10" fill="none" xmlns="http://www.w3.org/2000/svg">
<path d="M9.59292 2.18969C9.40875 2.37385 9.23 2.5526 9.22458 2.73135C9.20833 2.90469 9.3925 3.08344 9.56583 3.25135C9.82583 3.52219 10.0804 3.76594 10.0696 4.03135C10.0588 4.29677 9.7825 4.57302 9.50625 4.84385L7.26917 7.08635L6.5 6.31719L8.80208 4.02052L8.28208 3.50052L7.51292 4.26427L5.48167 2.23302L7.56167 0.158437C7.77292 -0.0528125 8.125 -0.0528125 8.32542 0.158437L9.59292 1.42594C9.80417 1.62635 9.80417 1.97844 9.59292 2.18969ZM0 7.7201L5.17833 2.53635L7.20958 4.5676L2.03125 9.75135H0V7.7201Z" fill="#434343"/>
</svg>
