<svg width="33" height="37" viewBox="0 0 33 37" fill="none" xmlns="http://www.w3.org/2000/svg">
<path d="M31.1667 3.65896C31.5271 3.65747 31.879 3.5498 32.1786 3.34939C32.4781 3.14899 32.7119 2.86474 32.8508 2.53219C32.9897 2.19963 33.0275 1.83352 32.9595 1.4796C32.8914 1.12568 32.7206 0.799667 32.4683 0.542297C32.2979 0.370461 32.0951 0.234072 31.8717 0.140996C31.6483 0.0479201 31.4087 0 31.1667 0C30.9246 0 30.685 0.0479201 30.4616 0.140996C30.2382 0.234072 30.0354 0.370461 29.865 0.542297C29.7001 0.711239 29.5694 0.910443 29.48 1.12896C29.3774 1.34654 29.3271 1.58514 29.3333 1.82563C29.3333 2.31186 29.5265 2.77818 29.8703 3.12199C30.2141 3.46581 30.6804 3.65896 31.1667 3.65896ZM31.1667 20.159C30.6804 20.159 30.2141 20.3521 29.8703 20.6959C29.5265 21.0398 29.3333 21.5061 29.3333 21.9923V22.7073L26.62 19.994C26.148 19.5189 25.5867 19.1419 24.9685 18.8846C24.3502 18.6274 23.6872 18.4949 23.0175 18.4949C22.3478 18.4949 21.6848 18.6274 21.0665 18.8846C20.4483 19.1419 19.887 19.5189 19.415 19.994L18.1317 21.2773L13.585 16.7123C12.6114 15.7917 11.3224 15.2788 9.9825 15.2788C8.64261 15.2788 7.35356 15.7917 6.38 16.7123L3.66667 19.4256V9.15896C3.66667 8.67273 3.85982 8.20642 4.20364 7.8626C4.54745 7.51878 5.01377 7.32563 5.5 7.32563H23.8333C24.3196 7.32563 24.7859 7.13248 25.1297 6.78866C25.4735 6.44484 25.6667 5.97853 25.6667 5.4923C25.6667 5.00607 25.4735 4.53975 25.1297 4.19593C24.7859 3.85212 24.3196 3.65896 23.8333 3.65896H5.5C4.04131 3.65896 2.64236 4.23843 1.61091 5.26988C0.579463 6.30133 0 7.70027 0 9.15896V31.159C0 32.6177 0.579463 34.0166 1.61091 35.048C2.64236 36.0795 4.04131 36.659 5.5 36.659H27.5C28.9587 36.659 30.3576 36.0795 31.3891 35.048C32.4205 34.0166 33 32.6177 33 31.159V21.9923C33 21.5061 32.8068 21.0398 32.463 20.6959C32.1192 20.3521 31.6529 20.159 31.1667 20.159ZM5.5 32.9923C5.01377 32.9923 4.54745 32.7991 4.20364 32.4553C3.85982 32.1115 3.66667 31.6452 3.66667 31.159V24.614L8.98333 19.2973C9.25267 19.0406 9.61045 18.8975 9.9825 18.8975C10.3545 18.8975 10.7123 19.0406 10.9817 19.2973L16.7933 25.109L24.6583 32.9923H5.5ZM29.3333 31.159C29.3181 31.5077 29.2036 31.8448 29.0033 32.1306L20.735 23.8256L22.0183 22.5423C22.2863 22.2758 22.6488 22.1263 23.0267 22.1263C23.4045 22.1263 23.7671 22.2758 24.035 22.5423L29.3333 27.8956V31.159ZM31.1667 5.4923C30.6804 5.4923 30.2141 5.68545 29.8703 6.02927C29.5265 6.37308 29.3333 6.8394 29.3333 7.32563V14.659C29.3333 15.1452 29.5265 15.6115 29.8703 15.9553C30.2141 16.2991 30.6804 16.4923 31.1667 16.4923C31.6529 16.4923 32.1192 16.2991 32.463 15.9553C32.8068 15.6115 33 15.1452 33 14.659V7.32563C33 6.8394 32.8068 6.37308 32.463 6.02927C32.1192 5.68545 31.6529 5.4923 31.1667 5.4923Z" fill="black"/>
</svg>
