<svg width="37" height="32" viewBox="0 0 37 32" fill="none" xmlns="http://www.w3.org/2000/svg">
<path d="M25.4375 32L11.5625 27.7592L2.40962 30.8489C1.81762 31.0414 1.26802 30.9856 0.760812 30.6813C0.253604 30.377 0 29.9489 0 29.3969V4.69923C0 4.33842 0.100209 4.00926 0.300625 3.71172C0.501042 3.41419 0.792416 3.20754 1.17475 3.09176L11.5625 0L25.4375 4.24082L34.5904 1.15108C35.1824 0.958559 35.732 0.994909 36.2392 1.26013C36.7464 1.52535 37 1.92116 37 2.44756V27.4563C37 27.8427 36.8774 28.1779 36.6323 28.4619C36.3887 28.7474 36.0604 28.948 35.6472 29.0637L25.4375 32ZM24.2812 29.5363V5.90887L12.7188 2.38495V26.0124L24.2812 29.5363ZM26.5938 29.5363L34.6875 27.2079V3.27755L26.5938 5.91089V29.5363ZM2.3125 28.7225L10.4062 26.0124V2.38495L2.3125 4.79212V28.7225Z" fill="black"/>
</svg>
