<svg width="9" height="6" viewBox="0 0 9 6" fill="none" xmlns="http://www.w3.org/2000/svg">
<path d="M7.44824 3.43555C7.82993 3.43563 8.19592 3.58752 8.46582 3.85742C8.73569 4.12738 8.8877 4.49328 8.8877 4.875V5.9082H8.1748V4.875C8.1748 4.47374 7.84946 4.14764 7.44824 4.14746H6.14355V3.43555H7.44824ZM1.48926 3.43555H3.65625C4.03805 3.43555 4.40385 3.58745 4.67383 3.85742C4.9438 4.1274 5.0957 4.4932 5.0957 4.875V5.9082H4.38379V4.875C4.38379 4.47364 4.05761 4.14746 3.65625 4.14746H1.48926C1.08804 4.14764 0.762695 4.47374 0.762695 4.875V5.9082H0.0498047V4.875C0.0498047 4.49328 0.201807 4.12738 0.47168 3.85742C0.741577 3.58752 1.10757 3.43563 1.48926 3.43555ZM2.57324 0.0498047C2.91893 0.0498908 3.25063 0.18724 3.49512 0.431641C3.7397 0.676219 3.87695 1.00861 3.87695 1.35449C3.87687 1.70026 3.73962 2.03187 3.49512 2.27637C3.25062 2.52087 2.91901 2.65812 2.57324 2.6582C2.22736 2.6582 1.89497 2.52095 1.65039 2.27637C1.40599 2.03188 1.26864 1.70018 1.26855 1.35449C1.26855 1.00861 1.40581 0.676219 1.65039 0.431641C1.89497 0.187062 2.22736 0.0498047 2.57324 0.0498047ZM6.36426 0.0498047C6.71014 0.0498047 7.04253 0.187062 7.28711 0.431641C7.53169 0.676219 7.66895 1.00861 7.66895 1.35449C7.66886 1.70018 7.53151 2.03188 7.28711 2.27637C7.04253 2.52095 6.71014 2.6582 6.36426 2.6582C6.01849 2.65812 5.68688 2.52087 5.44238 2.27637C5.19788 2.03187 5.06063 1.70026 5.06055 1.35449C5.06055 1.00861 5.1978 0.676219 5.44238 0.431641C5.68687 0.18724 6.01857 0.0498909 6.36426 0.0498047ZM2.57324 0.762695C2.41632 0.762695 2.26526 0.824588 2.1543 0.935547C2.04334 1.04651 1.98145 1.19757 1.98145 1.35449C1.98153 1.51122 2.04352 1.66159 2.1543 1.77246C2.26526 1.88342 2.41632 1.94629 2.57324 1.94629C2.73004 1.9462 2.88033 1.88334 2.99121 1.77246C3.10209 1.66158 3.16495 1.51129 3.16504 1.35449C3.16504 1.19757 3.10217 1.04651 2.99121 0.935547C2.88034 0.824766 2.72997 0.762781 2.57324 0.762695ZM6.36426 0.762695C6.20753 0.762782 6.05716 0.824766 5.94629 0.935547C5.83533 1.04651 5.77246 1.19757 5.77246 1.35449C5.77255 1.51129 5.83541 1.66158 5.94629 1.77246C6.05717 1.88334 6.20746 1.9462 6.36426 1.94629C6.52118 1.94629 6.67224 1.88342 6.7832 1.77246C6.89398 1.66159 6.95597 1.51122 6.95605 1.35449C6.95605 1.19757 6.89416 1.04651 6.7832 0.935547C6.67224 0.824588 6.52118 0.762695 6.36426 0.762695Z" fill="black" stroke="white" stroke-width="0.1"/>
</svg>
