<svg width="29" height="36" viewBox="0 0 29 36" fill="none" xmlns="http://www.w3.org/2000/svg">
<path d="M14.5 18C12.5062 18 10.875 16.38 10.875 14.4C10.875 12.42 12.5062 10.8 14.5 10.8C16.4938 10.8 18.125 12.42 18.125 14.4C18.125 16.38 16.4938 18 14.5 18ZM25.375 14.76C25.375 8.226 20.5719 3.6 14.5 3.6C8.42813 3.6 3.625 8.226 3.625 14.76C3.625 18.972 7.15937 24.552 14.5 31.212C21.8406 24.552 25.375 18.972 25.375 14.76ZM14.5 0C22.1125 0 29 5.796 29 14.76C29 20.736 24.1606 27.81 14.5 36C4.83938 27.81 0 20.736 0 14.76C0 5.796 6.8875 0 14.5 0Z" fill="black"/>
</svg>
