<svg width="8" height="10" viewBox="0 0 8 10" fill="none" xmlns="http://www.w3.org/2000/svg">
<path d="M3.66667 4.58333C3.1625 4.58333 2.75 4.17083 2.75 3.66667C2.75 3.1625 3.1625 2.75 3.66667 2.75C4.17083 2.75 4.58333 3.1625 4.58333 3.66667C4.58333 4.17083 4.17083 4.58333 3.66667 4.58333ZM6.41667 3.75833C6.41667 2.09458 5.20208 0.916667 3.66667 0.916667C2.13125 0.916667 0.916667 2.09458 0.916667 3.75833C0.916667 4.83083 1.81042 6.25167 3.66667 7.9475C5.52292 6.25167 6.41667 4.83083 6.41667 3.75833ZM3.66667 0C5.59167 0 7.33333 1.47583 7.33333 3.75833C7.33333 5.28 6.10958 7.08125 3.66667 9.16667C1.22375 7.08125 0 5.28 0 3.75833C0 1.47583 1.74167 0 3.66667 0Z" fill="black"/>
</svg>
