<svg width="9" height="9" viewBox="0 0 9 9" fill="none" xmlns="http://www.w3.org/2000/svg">
<path d="M4.35417 0C5.50896 0 6.61646 0.458741 7.43303 1.27531C8.24959 2.09187 8.70833 3.19937 8.70833 4.35417C8.70833 5.50896 8.24959 6.61646 7.43303 7.43303C6.61646 8.24959 5.50896 8.70833 4.35417 8.70833C3.19937 8.70833 2.09187 8.24959 1.27531 7.43303C0.458741 6.61646 0 5.50896 0 4.35417C0 3.19937 0.458741 2.09187 1.27531 1.27531C2.09187 0.458741 3.19937 0 4.35417 0ZM4.35417 0.458333C3.32093 0.458333 2.33001 0.868786 1.5994 1.5994C0.868786 2.33001 0.458333 3.32093 0.458333 4.35417C0.458333 5.38741 0.868786 6.37833 1.5994 7.10894C2.33001 7.83955 3.32093 8.25 4.35417 8.25C4.86577 8.25 5.37237 8.14923 5.84504 7.95345C6.3177 7.75766 6.74718 7.4707 7.10894 7.10894C7.4707 6.74718 7.75766 6.3177 7.95345 5.84504C8.14923 5.37237 8.25 4.86577 8.25 4.35417C8.25 3.32093 7.83955 2.33001 7.10894 1.5994C6.37833 0.868786 5.38741 0.458333 4.35417 0.458333ZM4.125 1.83333H4.58333V4.3175L6.7375 5.55958L6.50833 5.95833L4.125 4.58333V1.83333Z" fill="black"/>
</svg>
